<svg width="40" height="40" viewBox="0 0 40 40" fill="none" xmlns="http://www.w3.org/2000/svg">
<path d="M33.3334 21.6667V9.58167C33.3335 9.45011 33.3077 9.31982 33.2573 9.19827C33.207 9.07672 33.1332 8.9663 33.0401 8.87333L27.7934 3.62667C27.6061 3.43908 27.3519 3.33357 27.0867 3.33333H7.66675C7.40153 3.33333 7.14718 3.43869 6.95964 3.62623C6.7721 3.81376 6.66675 4.06812 6.66675 4.33333V35.6667C6.66675 35.9319 6.7721 36.1862 6.95964 36.3738C7.14718 36.5613 7.40153 36.6667 7.66675 36.6667H23.3334" stroke="#EBECF1" stroke-width="4" stroke-linecap="round" stroke-linejoin="round"/>
<path d="M26.6667 3.33333V9C26.6667 9.26522 26.7721 9.51957 26.9596 9.70711C27.1472 9.89464 27.4015 10 27.6667 10H33.3334M26.6667 31.6667H36.6667M36.6667 31.6667L31.6667 26.6667M36.6667 31.6667L31.6667 36.6667" stroke="#EBECF1" stroke-width="4" stroke-linecap="round" stroke-linejoin="round"/>
</svg>
