<svg width="40" height="40" viewBox="0 0 40 40" fill="none" xmlns="http://www.w3.org/2000/svg">
<path d="M33.3334 21.6667V9.58167C33.3335 9.45011 33.3076 9.31982 33.2573 9.19827C33.2069 9.07672 33.1331 8.9663 33.04 8.87333L27.7934 3.62667C27.606 3.43908 27.3518 3.33357 27.0867 3.33333H7.66669C7.40147 3.33333 7.14712 3.43869 6.95958 3.62623C6.77204 3.81376 6.66669 4.06812 6.66669 4.33333V35.6667C6.66669 35.9319 6.77204 36.1862 6.95958 36.3738C7.14712 36.5613 7.40147 36.6667 7.66669 36.6667H23.3334" stroke="#EBECF1" stroke-width="4" stroke-linecap="round" stroke-linejoin="round"/>
<path d="M26.6667 3.33333V9C26.6667 9.26522 26.772 9.51957 26.9596 9.70711C27.1471 9.89464 27.4015 10 27.6667 10H33.3334M26.6667 31.6667H36.6667M36.6667 31.6667L31.6667 26.6667M36.6667 31.6667L31.6667 36.6667" stroke="#EBECF1" stroke-width="4" stroke-linecap="round" stroke-linejoin="round"/>
</svg>
